<svg width="2082" height="252" xmlns="http://www.w3.org/2000/svg"><g fill-rule="nonzero" fill="none"><path d="M228.758 97.628c2.107-4.455 6.929-3.872 10.561-5.303 3.706-1.46 6.76-4.692 7.718-8.593 1.345-5.474-1.672-12.118-6.983-14.324-5.294-2.2-12.19 1.126-14.422 6.189-.974 2.21-1.229 4.658-1.773 7.01-.543 2.353-1.369 4.92-3.398 6.233-8.239 5.33-23.059-10.23-27.581-14.628l-2.527-3.04-17.37 17.37a58.939 58.939 0 00-5.281-5.527l17.746-17.746-1.94-2.335c-4.086-5.973-13.252-17.39-17.618-19.33-4.713-2.093-8.466-2.72-13.312-1.046-2.067.715-4.032 1.952-5.186 3.81-1.12 1.805-1.377 3.995-2.05 6.008-1.976 5.901-8.429 10.38-14.667 10.03-7.885-.444-13.03-9.35-11.176-16.641 1.252-4.924 5.501-8.954 10.484-9.944 2.618-.52 5.365-.263 7.913-1.13a.812.812 0 00.087-.035c6.501-3.073 8.574-11.669 5.154-16.832C140.102 13.244 126 0 126 0c-4.034 8.793-15.488 27.909-27.75 24.082a1.021 1.021 0 01-.105-.041c-4.456-2.107-3.873-6.928-5.304-10.562-1.46-3.705-4.692-6.759-8.593-7.717-5.474-1.345-12.117 1.673-14.325 6.982-2.2 5.294 1.128 12.191 6.19 14.423 2.21.975 4.658 1.23 7.011 1.773 2.352.543 4.919 1.368 6.232 3.397 5.33 8.24-10.23 23.06-14.628 27.583l-4.79 3.98 18.956 18.956a59.027 59.027 0 00-5.3 5.508L64.035 68.806l-.585.486c-5.973 4.084-17.39 13.25-19.33 17.617-2.093 4.713-2.72 8.466-1.046 13.313.715 2.067 1.952 4.03 3.81 5.185 1.805 1.12 3.995 1.377 6.009 2.05 5.9 1.976 10.38 8.429 10.029 14.667-.444 7.885-9.35 13.03-16.64 11.176-4.925-1.252-8.955-5.5-9.945-10.484-.52-2.618-.263-5.365-1.13-7.912a.755.755 0 00-.035-.087c-3.073-6.502-11.741-8.682-16.831-5.154C12.413 113.77 0 126 0 126s27.44 16.004 23.614 28.267a.926.926 0 01-.041.105c-2.107 4.456-6.928 3.872-10.562 5.304-3.706 1.46-6.759 4.692-7.717 8.593-1.345 5.474 1.672 12.117 6.983 14.324 5.293 2.2 12.19-1.127 14.422-6.19.974-2.21 1.229-4.657 1.773-7.01.543-2.353 1.368-4.919 3.397-6.232 8.24-5.331 23.06 10.23 27.582 14.628l6.117 7.36 19.662-19.662a58.944 58.944 0 005.53 5.28l-20.43 20.43c4.52 6.22 12.22 15.471 16.111 17.2 4.712 2.092 8.466 2.72 13.312 1.045 2.067-.715 4.032-1.952 5.186-3.81 1.12-1.804 1.376-3.995 2.05-6.008 1.976-5.9 8.429-10.38 14.667-10.029 7.885.443 13.03 9.35 11.175 16.64-1.25 4.925-5.5 8.955-10.484 9.945-2.618.52-5.365.263-7.912 1.129a1.288 1.288 0 00-.087.035c-6.501 3.074-8.774 11.808-5.154 16.832C113.95 240.776 126 252 126 252c4.034-8.793 15.819-27.908 28.081-24.082.03.01.078.029.105.042 4.456 2.106 3.872 6.928 5.303 10.56 1.46 3.707 4.693 6.76 8.593 7.718 5.475 1.345 12.118-1.672 14.325-6.982 2.2-5.294-1.127-12.19-6.19-14.423-2.21-.974-4.657-1.229-7.01-1.773-2.353-.542-4.92-1.368-6.232-3.397-5.33-8.24 10.23-23.06 14.627-27.582l5.302-4.406-17.051-17.052a59.027 59.027 0 005.508-5.3l17.447 17.446.073-.06c5.973-4.085 17.39-13.251 19.33-17.618 2.093-4.712 2.72-8.466 1.045-13.312-.714-2.067-1.952-4.031-3.81-5.185-1.804-1.12-3.994-1.377-6.008-2.052-5.9-1.975-10.38-8.428-10.03-14.666.445-7.885 9.35-13.029 16.641-11.176 4.924 1.252 8.955 5.501 9.945 10.484.52 2.618.262 5.366 1.13 7.913a.812.812 0 00.035.087c3.073 6.502 11.967 8.987 16.831 5.154C239.336 138.125 252 126 252 126c-8.794-4.035-27.11-16.004-23.283-28.266a.926.926 0 01.04-.106zM74 126.436c0-15.869 6.806-30.173 17.645-40.152l2.293-1.913-1.045 3.007 1.045 3.269 1.437.13-3.266 5.885-.13 4.315 4.31 6.146v1.961l3.918 4.707 1.175.392-3.134-5.099-.653-2.354 1.045.131 3.004 4.969 1.828 1.961v2.616l3.788 2.353 4.049 2.353h4.44l2.743 1.831 3.134.523h1.829l1.306 2.223 1.175 1.7 3.135 1.961h2.481l.915-1.176 1.306 1.176.653 1.962-.653 1.83-2.874 3.531v2.615l-1.044.785.392 2.092 1.697 1.438 1.698 3.008.784 2.745 4.962 2.224-1.044 5.753-1.96 3.922-3.003 4.577-.523 2.746h-.653l-.784 1.83 1.176 3.008 2.743-.523.653-2.092.914-.13.653-1.57 4.31-2.615 1.96-1.177 1.567.13 1.436-1.699v-1.046h2.351l2.612-2.093 1.829-1.045 1.959-2.223 1.96-1.83 2.742-1.047 1.958-1.439 3.788-5.491.914-1.83 2.873-3.4.784-1.7-4.702-2.485-1.436-1.7-3.004-.13-.653.13.523-1.569-.392-1.308-3.005-3.138-3.004.916-.653-1.831-3.134-1.569-2.873-1.177h-3.004l-2.22-1.177-1.045.523-.522 1.57-.392-.916.13-1.57-3.265.916-2.09 1.57-1.045 1.242-1.436-2.158-2.22.916h-1.241l-.98-.916-.914-.523.196-2.222v-1.7l-1.241-.655-4.701-.261v-1.176l1.305-1.7.261-1.178.784-1.176-1.437-.785-2.22.393-1.96 1.96-.521.655-2.351.13h-1.828l-1.437-2.353-.13-2.877.39-3.138 1.177-1.569 3.134-.785 1.697-.13 1.699.784 1.306.262.13-1.308 1.698.13 1.176.132.522 1.308 1.045.261h1.306l.784.13 1.11 2.354 1.24 1.046.653-.784-.13-1.831-.784-1.961v-1.831l1.437-1.176 3.657-2.355.522-1.046V99.67l1.83-1.307 2.579-1.307 1.468-2.224 1.698-1.176.784.26-.261 1.7h1.437l2.742-1.7 1.175-.652-.13-1.177-1.828.784-.523-.654-1.306-.13-.522-1.7-1.437-.523-2.22.522 1.959-1.307 1.96.393.782.653 1.045.261 1.176-.914.784-.131.913.13-.653 1.7.784.916 2.09.13 1.306.654.914.131-.13-.915-2.22-1.962-.915-.523-.13-1.569-.915-.915-3.787-2.746-1.829-.654-1.567-1.961-1.176-1.046-.783 1.307-1.698-.13-1.176-1.177-.522-1.177h-1.959l-1.306-1.83h-1.436l-.784 3.922 1.045 1.046.261 1.307-.784-.13-.914.392v1.57l1.045 1.307h-1.698l-.915-.393-.848-1.307v-1.046l-1.698-.393-4.245-1.307-1.306-.131-1.436-1.046-.262-1.307 3.788-2.485h1.567l1.698.654.784-.654-.588 1.569 1.698-.13 1.24-1.439-1.24-1.438.588-.785.26-1.176h1.437l.13 1.7h1.438l-1.306.784 3.526.654.784 1.045 2.742 1.177h1.045l.261-2.091.654-.916-2.874-1.177-2.35-1.96h-1.829l-2.22-.655h-.393l.216-.864c.242.016.482.037.723.056l1.935.677 2.481.393 1.829.915 1.698.262 2.481 1.176 1.306.523.653-.392-.391 2.092 1.436.393 2.09 1.045.522 1.047 2.612 1.177 1.829 1.045.914.654.261-1.176-.783-1.7.273-2.006C171.187 87.34 183 105.53 183 126.436 183 156.523 158.551 181 128.5 181S74 156.523 74 126.436zm61.699-12.315l2.481-2.876H134v.785l-2.35.914-2.481 1.177-2.22-.784v.523l2.97 1.177 5.78-.916zm-1.828 4.577l1.175.784.653-1.438-1.828.654zm5.616.13h3.787l1.829-1.372-5.094-.72-1.829.72 1.307.719v.654zm6.66 0l.915 1.047.522-1.046h-1.437zm-6.66 50.342V171l1.175-1.83h-1.175z" fill="#3CB879"/><path d="M346.88 177.59V59.83c0-4.447-.307-7.207-.92-8.28-.307-.613-1.342-1.227-3.105-1.84s-5.213-1.227-10.35-1.84-10.772-.92-16.905-.92v-2.3h142.14v57.5h-2.76c0-11.807-2.99-23.077-8.97-33.81-7.973-14.26-19.243-21.39-33.81-21.39-9.967 0-16.982.153-21.045.46-4.063.307-8.165 1.073-12.305 2.3l-2.07.92c-1.073 1.073-1.61 4.14-1.61 9.2v53.59c16.407 0 26.603-1.61 30.59-4.83 6.44-5.213 10.58-18.4 12.42-39.56h2.53v90.85h-2.53c0-20.7-3.527-33.657-10.58-38.87-4.447-3.373-15.257-5.06-32.43-5.06v61.64c0 4.447.307 7.283.92 8.51.307.613 1.38 1.265 3.22 1.955 1.84.69 5.405 1.265 10.695 1.725 5.29.46 12.458.69 21.505.69V193H315.6v-2.53c6.593 0 12.305-.23 17.135-.69 4.83-.46 8.127-1.035 9.89-1.725 1.763-.69 2.913-1.533 3.45-2.53.537-.997.805-3.642.805-7.935zm243.568-30.13V83.52c0-13.953-2.376-23.537-7.13-28.75-4.753-5.213-13.34-7.82-25.76-7.82v-2.3h65.09v2.3c-10.886 0-18.476 2.607-22.77 7.82-4.293 5.213-6.44 14.797-6.44 28.75v110.4h-5.29l-91.77-121.44-2.53-2.99c-.46 0-.69 1.38-.69 4.14v74.98c0 16.867 2.3 28.06 6.9 33.58 4.6 5.52 13.187 8.28 25.76 8.28V193h-66.93v-2.53c11.96 0 20.164-2.453 24.61-7.36 4.447-4.907 6.67-14.567 6.67-28.98v-78.2c0-8.587-2.3-15.333-6.9-20.24-5.52-5.827-13.646-8.74-24.38-8.74v-2.3h47.38l79.81 103.5c1.994 2.607 3.22 3.91 3.68 3.91.46 0 .69-1.533.69-4.6zm87.629-31.51v61.41c0 4.293.23 6.977.69 8.05.46 1.073 1.917 2.032 4.37 2.875 2.453.843 5.29 1.342 8.51 1.495 3.22.153 8.97.23 17.25.23 17.48 0 30.705-5.175 39.675-15.525 8.97-10.35 14.605-26.948 16.905-49.795h2.76V193h-149.5v-2.53c13.647 0 22.693-.843 27.14-2.53 1.533-.613 2.568-1.418 3.105-2.415.537-.997.805-3.642.805-7.935V59.83c0-4.447-.307-7.207-.92-8.28-.307-.613-1.303-1.227-2.99-1.84-1.687-.613-5.137-1.227-10.35-1.84s-10.81-.92-16.79-.92v-2.3h141.91v57.5h-2.76c0-11.807-2.99-23.077-8.97-33.81-7.973-14.26-19.243-21.39-33.81-21.39-5.827 0-11.692.038-17.595.115-5.903.077-11.155.805-15.755 2.185-1.38.613-2.338 1.418-2.875 2.415-.537.997-.805 3.718-.805 8.165v53.59c15.947 0 25.837-1.61 29.67-4.83 5.827-4.907 9.89-18.093 12.19-39.56h2.53v90.85h-2.53c-2.3-21.007-6.287-33.963-11.96-38.87-3.987-3.373-13.953-5.06-29.9-5.06zm216.427-56.58v118.22c0 4.447.306 7.283.92 8.51.306.613 1.226 1.227 2.76 1.84 4.446 1.687 13.57 2.53 27.37 2.53V193h-90.62v-2.53c6.593 0 12.305-.23 17.135-.69 4.83-.46 8.126-1.035 9.89-1.725 1.763-.69 2.913-1.533 3.45-2.53.536-.997.805-3.642.805-7.935V59.37c0-4.293-.307-6.977-.92-8.05-.307-.613-1.304-1.227-2.99-1.84-4.447-1.687-13.57-2.53-27.37-2.53v-2.3h90.85v2.3c-6.594 0-12.305.23-17.135.69-4.83.46-8.242 1.073-10.235 1.84l-2.3.92c-1.074.92-1.61 3.91-1.61 8.97zm77.738 77.28v45.08c0 3.067.23 5.06.69 5.98.307.46 1.035.92 2.185 1.38 1.15.46 3.22.843 6.21 1.15 2.99.307 5.635.46 7.935.46v2.3h-58.88v-2.3c3.374 0 6.709-.153 10.005-.46 3.297-.307 6.249-.92 8.855-1.84.92-.767 1.38-2.99 1.38-6.67v-69.69c0-1.38-.038-2.76-.115-4.14-.076-1.38-.421-2.453-1.035-3.22l-1.38-2.3c-1.533-1.073-7.36-1.61-17.48-1.61v-2.3l41.63-3.91v29.67c.92-6.593 2.914-12.42 5.98-17.48 4.294-7.053 8.817-10.848 13.57-11.385 4.754-.537 7.82-.805 9.2-.805 9.66 0 17.327 2.913 23 8.74 4.754 4.907 7.13 10.733 7.13 17.48v60.95c0 3.067.23 5.06.69 5.98.307.46 1.074.92 2.3 1.38 1.227.46 3.45.843 6.67 1.15 3.22.307 6.287.46 9.2.46v2.3h-58.88v-2.3c2.454 0 5.29-.153 8.51-.46 3.22-.307 6.057-.92 8.51-1.84.92-.767 1.38-2.99 1.38-6.67v-58.19c0-7.36-.613-12.957-1.84-16.79-1.993-6.287-5.673-9.43-11.04-9.43-7.053 0-12.803 4.37-17.25 13.11-3.373 6.593-5.75 15.333-7.13 26.22zm147.429 7.36v10.58c0 3.527.076 6.9.23 10.12 0 10.733-1.227 18.093-3.68 22.08-3.374 5.52-9.89 8.28-19.55 8.28-9.2 0-15.947-2.223-20.24-6.67-4.294-4.447-6.44-10.81-6.44-19.09v-65.32h-18.4v-2.3c12.42-3.067 21.773-10.35 28.06-21.85 5.06-9.2 7.59-19.55 7.59-31.05h4.14v48.53h26.68v6.67h-26.68v62.56c0 8.28.306 13.647.92 16.1 1.533 5.827 4.983 8.74 10.35 8.74 6.286 0 10.426-3.373 12.42-10.12 1.38-4.6 2.07-13.34 2.07-26.22v-11.04h2.53zm30.128 1.61c0 16.407 1.955 28.29 5.865 35.65 3.91 7.36 9.852 11.04 17.825 11.04 8.433 0 15.87-2.837 22.31-8.51 7.82-6.9 11.73-16.253 11.73-28.06h2.07c0 11.5-3.68 20.93-11.04 28.29-7.36 7.36-17.173 11.04-29.44 11.04-10.273 0-19.627-3.91-28.06-11.73-9.967-9.2-14.95-21.237-14.95-36.11 0-16.1 4.907-29.21 14.72-39.33 8.587-8.74 18.247-13.11 28.98-13.11 9.967 0 18.247 2.913 24.84 8.74 9.66 8.587 14.49 22.617 14.49 42.09h-59.34zm40.02-2.99c0-14.72-1.342-25.952-4.025-33.695-2.683-7.743-7.015-11.615-12.995-11.615-8.433 0-14.375 3.68-17.825 11.04-3.45 7.36-5.175 18.783-5.175 34.27h40.02zm49.679-32.2c0-3.067-.307-4.983-.92-5.75-1.074-1.533-2.07-2.453-2.99-2.76-2.76-.767-9.047-1.15-18.86-1.15v-2.3l44.39-3.45V124c.613-6.287 2.76-12.19 6.44-17.71 5.06-7.667 11.423-11.5 19.09-11.5 2.913 0 6.056.958 9.43 2.875 3.373 1.917 5.635 4.332 6.785 7.245 1.15 2.913 1.725 5.52 1.725 7.82 0 6.133-2.53 10.35-7.59 12.65-1.227.613-2.837.92-4.83.92-3.067 0-5.674-1.073-7.82-3.22-2.147-2.147-3.22-5.367-3.22-9.66 0-2.76 1.035-5.52 3.105-8.28 2.07-2.76 4.485-3.833 7.245-3.22-.92-3.067-3.68-4.6-8.28-4.6-4.447 0-8.894 3.22-13.34 9.66-5.827 8.28-8.74 18.937-8.74 31.97v42.78c0 3.067.23 5.06.69 5.98.306.46.996.92 2.07 1.38 3.22 1.073 9.89 1.61 20.01 1.61v2.3h-67.16v-2.3c4.446 0 8.471-.153 12.075-.46 3.603-.307 6.708-.92 9.315-1.84.92-.767 1.38-2.99 1.38-6.67v-71.3zm109.248 26.22v45.08c0 3.067.23 5.06.69 5.98.307.46 1.035.92 2.185 1.38 1.15.46 3.22.843 6.21 1.15 2.99.307 5.635.46 7.935.46v2.3h-58.88v-2.3c3.373 0 6.708-.153 10.005-.46 3.297-.307 6.248-.92 8.855-1.84.92-.767 1.38-2.99 1.38-6.67v-69.69c0-1.38-.038-2.76-.115-4.14-.077-1.38-.422-2.453-1.035-3.22l-1.38-2.3c-1.533-1.073-7.36-1.61-17.48-1.61v-2.3l41.63-3.91v29.67c.92-6.593 2.913-12.42 5.98-17.48 4.293-7.053 8.817-10.848 13.57-11.385 4.753-.537 7.82-.805 9.2-.805 9.66 0 17.327 2.913 23 8.74 4.753 4.907 7.13 10.733 7.13 17.48v60.95c0 3.067.23 5.06.69 5.98.307.46 1.073.92 2.3 1.38 1.227.46 3.45.843 6.67 1.15 3.22.307 6.287.46 9.2.46v2.3h-58.88v-2.3c2.453 0 5.29-.153 8.51-.46 3.22-.307 6.057-.92 8.51-1.84.92-.767 1.38-2.99 1.38-6.67v-58.19c0-7.36-.613-12.957-1.84-16.79-1.993-6.287-5.673-9.43-11.04-9.43-7.053 0-12.803 4.37-17.25 13.11-3.373 6.593-5.75 15.333-7.13 26.22zm140.988 31.05v-30.59c-1.84 2.453-4.561 3.948-8.165 4.485a858.67 858.67 0 01-10.465 1.495c-4.446 1.073-7.973 3.527-10.58 7.36-3.066 4.6-4.6 11.04-4.6 19.32 0 8.893.882 14.912 2.645 18.055 1.764 3.143 4.562 4.715 8.395 4.715 5.827 0 11.079-2.415 15.755-7.245 4.677-4.83 7.015-10.695 7.015-17.595zm.69-41.4v-13.34c0-6.133-.996-10.273-2.99-12.42-1.993-2.147-6.286-3.22-12.88-3.22-5.366 0-10.043.997-14.03 2.99-3.986 1.993-6.593 4.677-7.82 8.05.614-.153 1.38-.23 2.3-.23 2.914 0 5.29 1.15 7.13 3.45 1.84 2.3 2.76 4.907 2.76 7.82 0 3.373-1.15 6.133-3.45 8.28-2.3 2.147-4.983 3.22-8.05 3.22-1.993 0-3.756-.537-5.29-1.61-4.446-2.913-6.67-6.593-6.67-11.04 0-2.147.46-4.6 1.38-7.36 2.147-5.98 7.514-10.35 16.1-13.11 6.134-1.993 12.344-2.99 18.63-2.99 11.347 0 19.934 2.147 25.76 6.44 5.214 3.833 7.82 8.663 7.82 14.49v50.83c0 9.2.23 14.873.69 17.02 1.074 5.213 3.834 7.82 8.28 7.82 3.987 0 6.67-2.07 8.05-6.21 1.38-4.14 2.07-10.12 2.07-17.94 0-2.147-.038-4.293-.115-6.44-.076-2.147-.115-4.37-.115-6.67v-2.07h2.53v10.12c0 3.22.077 6.287.23 9.2 0 8.893-1.073 14.873-3.22 17.94-2.76 3.833-8.356 5.75-16.79 5.75-6.593 0-11.5-1.15-14.72-3.45-3.833-2.76-6.363-7.437-7.59-14.03-3.22 7.513-8.05 12.573-14.49 15.18-3.833 1.533-8.97 2.3-15.41 2.3-6.44 0-12.036-1.533-16.79-4.6-6.593-4.14-9.89-10.427-9.89-18.86 0-8.28 3.22-15.257 9.66-20.93 6.44-5.52 14.26-8.663 23.46-9.43 9.2-.767 15.41-1.993 18.63-3.68 3.22-1.687 4.83-5.443 4.83-11.27zm112.239 17.71v10.58c0 3.527.077 6.9.23 10.12 0 10.733-1.227 18.093-3.68 22.08-3.373 5.52-9.89 8.28-19.55 8.28-9.2 0-15.947-2.223-20.24-6.67-4.293-4.447-6.44-10.81-6.44-19.09v-65.32h-18.4v-2.3c12.42-3.067 21.773-10.35 28.06-21.85 5.06-9.2 7.59-19.55 7.59-31.05h4.14v48.53h26.68v6.67h-26.68v62.56c0 8.28.307 13.647.92 16.1 1.533 5.827 4.983 8.74 10.35 8.74 6.287 0 10.427-3.373 12.42-10.12 1.38-4.6 2.07-13.34 2.07-26.22v-11.04h2.53zm49.678-48.99v86.71c0 3.067.23 5.06.69 5.98.307.46.997.92 2.07 1.38 3.22 1.073 9.89 1.61 20.01 1.61v2.3h-67.16v-2.3c4.447 0 8.472-.153 12.075-.46 3.604-.307 6.709-.92 9.315-1.84.92-.767 1.38-2.99 1.38-6.67v-71.3c0-2.913-.306-4.753-.92-5.52-1.073-1.533-2.07-2.453-2.99-2.76-2.76-.767-9.046-1.15-18.86-1.15v-2.3l44.39-3.68zm-12.19-52.21c3.68 0 6.747 1.227 9.2 3.68 2.454 2.453 3.68 5.52 3.68 9.2 0 3.68-1.226 6.747-3.68 9.2-2.453 2.453-5.52 3.68-9.2 3.68-3.68 0-6.746-1.227-9.2-3.68-2.453-2.453-3.68-5.52-3.68-9.2 0-3.68 1.227-6.747 3.68-9.2 2.454-2.453 5.52-3.68 9.2-3.68zM1776.54 144.7c0 14.873-5.137 27.217-15.41 37.03-9.354 8.893-19.857 13.34-31.51 13.34-11.96 0-22.387-4.14-31.28-12.42-10.427-9.66-15.64-22.31-15.64-37.95 0-14.873 5.136-27.14 15.41-36.8 9.353-8.74 19.856-13.11 31.51-13.11 11.806 0 22.233 4.14 31.28 12.42 10.426 9.507 15.64 22.003 15.64 37.49zm-23.92 0c0-17.02-1.457-28.98-4.37-35.88-3.374-7.973-9.584-11.96-18.63-11.96-8.28 0-14.184 3.833-17.71 11.5-3.527 7.667-5.29 19.78-5.29 36.34 0 16.867 1.571 29.133 4.715 36.8 3.143 7.667 9.238 11.5 18.285 11.5 8.28 0 14.183-3.91 17.71-11.73 3.526-7.82 5.29-20.01 5.29-36.57zm73.828-8.05v45.08c0 3.067.23 5.06.69 5.98.307.46 1.035.92 2.185 1.38 1.15.46 3.22.843 6.21 1.15 2.99.307 5.635.46 7.935.46v2.3h-58.88v-2.3c3.374 0 6.709-.153 10.005-.46 3.297-.307 6.249-.92 8.855-1.84.92-.767 1.38-2.99 1.38-6.67v-69.69c0-1.38-.038-2.76-.115-4.14-.076-1.38-.421-2.453-1.035-3.22l-1.38-2.3c-1.533-1.073-7.36-1.61-17.48-1.61v-2.3l41.63-3.91v29.67c.92-6.593 2.914-12.42 5.98-17.48 4.294-7.053 8.817-10.848 13.57-11.385 4.754-.537 7.82-.805 9.2-.805 9.66 0 17.327 2.913 23 8.74 4.754 4.907 7.13 10.733 7.13 17.48v60.95c0 3.067.23 5.06.69 5.98.307.46 1.074.92 2.3 1.38 1.227.46 3.45.843 6.67 1.15 3.22.307 6.287.46 9.2.46v2.3h-58.88v-2.3c2.454 0 5.29-.153 8.51-.46 3.22-.307 6.057-.92 8.51-1.84.92-.767 1.38-2.99 1.38-6.67v-58.19c0-7.36-.613-12.957-1.84-16.79-1.993-6.287-5.673-9.43-11.04-9.43-7.053 0-12.803 4.37-17.25 13.11-3.373 6.593-5.75 15.333-7.13 26.22zm140.989 31.05v-30.59c-1.84 2.453-4.562 3.948-8.165 4.485a858.67 858.67 0 01-10.465 1.495c-4.447 1.073-7.974 3.527-10.58 7.36-3.067 4.6-4.6 11.04-4.6 19.32 0 8.893.881 14.912 2.645 18.055 1.763 3.143 4.561 4.715 8.395 4.715 5.826 0 11.078-2.415 15.755-7.245 4.676-4.83 7.015-10.695 7.015-17.595zm.69-41.4v-13.34c0-6.133-.997-10.273-2.99-12.42-1.994-2.147-6.287-3.22-12.88-3.22-5.367 0-10.044.997-14.03 2.99-3.987 1.993-6.594 4.677-7.82 8.05.613-.153 1.38-.23 2.3-.23 2.913 0 5.29 1.15 7.13 3.45 1.84 2.3 2.76 4.907 2.76 7.82 0 3.373-1.15 6.133-3.45 8.28-2.3 2.147-4.984 3.22-8.05 3.22-1.994 0-3.757-.537-5.29-1.61-4.447-2.913-6.67-6.593-6.67-11.04 0-2.147.46-4.6 1.38-7.36 2.146-5.98 7.513-10.35 16.1-13.11 6.133-1.993 12.343-2.99 18.63-2.99 11.346 0 19.933 2.147 25.76 6.44 5.213 3.833 7.82 8.663 7.82 14.49v50.83c0 9.2.23 14.873.69 17.02 1.073 5.213 3.833 7.82 8.28 7.82 3.986 0 6.67-2.07 8.05-6.21 1.38-4.14 2.07-10.12 2.07-17.94 0-2.147-.039-4.293-.115-6.44-.077-2.147-.115-4.37-.115-6.67v-2.07h2.53v10.12c0 3.22.076 6.287.23 9.2 0 8.893-1.074 14.873-3.22 17.94-2.76 3.833-8.357 5.75-16.79 5.75-6.594 0-11.5-1.15-14.72-3.45-3.834-2.76-6.364-7.437-7.59-14.03-3.22 7.513-8.05 12.573-14.49 15.18-3.834 1.533-8.97 2.3-15.41 2.3-6.44 0-12.037-1.533-16.79-4.6-6.594-4.14-9.89-10.427-9.89-18.86 0-8.28 3.22-15.257 9.66-20.93 6.44-5.52 14.26-8.663 23.46-9.43 9.2-.767 15.41-1.993 18.63-3.68 3.22-1.687 4.83-5.443 4.83-11.27zm90.848 55.43c0 3.067.23 5.06.69 5.98.307.46.997.92 2.07 1.38 3.22 1.073 9.89 1.61 20.01 1.61v2.3h-67.16v-2.3c4.447 0 8.472-.153 12.075-.46 3.603-.307 6.708-.92 9.315-1.84.92-.767 1.38-2.99 1.38-6.67V58.91c0-3.067-.46-5.213-1.38-6.44-.92-1.227-1.84-1.993-2.76-2.3-2.76-.767-8.893-1.15-18.4-1.15v-2.3l44.16-3.91v138.92z" fill="#000"/></g></svg>